@startuml ttt


stInstrWrite --> stTMP : [*]
stInstrWrite : [instrWrite = 1]

stTMP --> stRegFileWrLL : [000_?]
stTMP --> stDataTMP : [001_?]
stTMP --> stSWMemWrite : [010_?]
stTMP --> stLSH : [011_?]
stTMP --> stOR : [100_?]
stTMP --> stAND : [101_?]
stTMP --> stBEQ : [110_?]
stTMP --> stADD : [111_?]

stADD --> stPCUpdate : [*]
stADD : [aluOp = 111]
stADD : [mux1 = 1]
stADD : [mux2 = 0]
stADD : [regFileWr = 1]

stLSH --> stPCUpdate : [*]
stLSH : [aluOp = 011]
stLSH : [mux1 = 1]
stLSH : [mux2 = 0]
stLSH : [regFileWr = 1]

stOR --> stPCUpdate : [*]
stOR : [aluOp = 100]
stOR : [mux1 = 1]
stOR : [mux2 = 0]
stOR : [regFileWr = 1]


stAND --> stPCUpdate : [*]
stAND : [aluOp = 101]
stAND : [mux1 = 1]
stAND : [mux2 = 0]
stAND : [regFileWr = 1]


stBEQ --> stPCUpdate : [110_0]
stBEQ --> stBEQTrue : [110_1]


stBEQTrue --> stInstrWrite : [*]
stBEQTrue : [mux2 = 0]
stBEQTrue : [aluOp = 010]
stBEQTrue : [floprPcMUX = 1]
stBEQTrue : [floprPcUpdate = 1]


stSWMemWrite --> stPCUpdate : [*]
stSWMemWrite : [memWrite = 1]
stSWMemWrite : [aluOp = 001]
stSWMemWrite : [mux1 = 1]
stSWMemWrite : [mux0 = 1]

stDataTMP --> stLWWriteData : [*]
stDataTMP : [mux1 = 1]
stDataTMP : [aluOp = 001]
stDataTMP : [mux0 = 1]
stDataTMP : [dataTMPWr = 1]


stLWWriteData --> stPCUpdate : [*]
stLWWriteData : [mux2 = 1]
stLWWriteData : [aluOp = 110]
stLWWriteData : [regFileWr = 1]

stRegFileWrLL --> stPCUpdate : [*]
stRegFileWrLL : [regFileWr = 1]
stRegFileWrLL : [mux1 = 0]
stRegFileWrLL : [aluOp = 000]
 


stPCUpdate --> stInstrWrite : [*]
stPCUpdate : [floprPcUpdate = 1]
@enduml